<?xml version="1.0" encoding="utf-8"?>
<!-- Generator: Adobe Illustrator 19.0.0, SVG Export Plug-In . SVG Version: 6.00 Build 0)  -->
<svg version="1.1" id="Layer_1" xmlns="http://www.w3.org/2000/svg" xmlns:xlink="http://www.w3.org/1999/xlink" x="0px" y="0px"
	 viewBox="100.5 0 399 399" style="enable-background:new 100.5 0 399 399;" xml:space="preserve">
<style type="text/css">
	.st0{fill:#FFFFFF;}
</style>
<path class="st0" d="M300,0C189.8,0,100.5,89.3,100.5,199.5S189.8,399,300,399s199.5-89.3,199.5-199.5S410.2,0,300,0z M231.4,99.8
	c10.3,0,18.7,8.4,18.7,18.7s-8.4,18.7-18.7,18.7s-18.7-8.4-18.7-18.7S221.1,99.8,231.4,99.8z M250.3,274.1h-37.4V149.6h37.4V274.1z
	 M399.8,274.1h-37.4v-67.9c0-13.9-4-27.9-20.4-27.9s-29.5,13.9-29.5,28.2v67.6h-37.5V149.2h37.5v17.3c11.5-14.6,27.7-21.2,45.9-21.2
	c18.1,0,41.4,9.1,41.4,58.1V274.1z"/>
</svg>
