<?xml version="1.0" encoding="utf-8"?>
<!-- Generator: Adobe Illustrator 18.0.0, SVG Export Plug-In . SVG Version: 6.00 Build 0)  -->
<!DOCTYPE svg PUBLIC "-//W3C//DTD SVG 1.1//EN" "http://www.w3.org/Graphics/SVG/1.1/DTD/svg11.dtd">
<svg version="1.1" id="Layer_1" xmlns="http://www.w3.org/2000/svg" xmlns:xlink="http://www.w3.org/1999/xlink" x="0px" y="0px"
	 viewBox="0 0 69.2 47.4" style="enable-background:new 0 0 69.2 47.4;" xml:space="preserve">
<style type="text/css">
	.st0{clip-path:url(#SVGID_2_);fill:#FFFFFF;}
	.st1{clip-path:url(#SVGID_4_);fill:url(#SVGID_5_);}
</style>
<g>
	<defs>
		<rect id="SVGID_1_" y="0" width="69.2" height="47.4"/>
	</defs>
	<clipPath id="SVGID_2_">
		<use xlink:href="#SVGID_1_"  style="overflow:visible;"/>
	</clipPath>
	<path class="st0" d="M0,36.2v2.1c0,7.4,2.3,9,9.6,9H47V23.1c0-6.2-2.6-9.2-10.8-9.2H20.8l-5.7,6.4h19c6.4,0,6.1,1.3,6.1,4.9v1.9
		H9.4C2.1,27.1,0,28.9,0,36.2 M12.5,34.4h27.7v6H12.3c-4.1,0-5.7,0.4-5.6-3C6.7,34,8.4,34.4,12.5,34.4"/>
</g>
<g>
	<defs>
		<path id="SVGID_3_" d="M51.4,47.4h6.3V13.7h-6.3V47.4z M62.5,47.4h6.7V0h-6.7V47.4z"/>
	</defs>
	<clipPath id="SVGID_4_">
		<use xlink:href="#SVGID_3_"  style="overflow:visible;"/>
	</clipPath>
	
		<linearGradient id="SVGID_5_" gradientUnits="userSpaceOnUse" x1="5.275160e-08" y1="47.3926" x2="1" y2="47.3926" gradientTransform="matrix(0 -47.3926 -47.3926 0 2306.3489 47.3926)">
		<stop  offset="0" style="stop-color:#ED6D05"/>
		<stop  offset="1" style="stop-color:#E6007E"/>
	</linearGradient>
	<rect x="51.4" y="0" class="st1" width="17.7" height="47.4"/>
</g>
</svg>
