<?xml version="1.0" encoding="utf-8"?>
<!-- Generator: Adobe Illustrator 18.0.0, SVG Export Plug-In . SVG Version: 6.00 Build 0)  -->
<!DOCTYPE svg PUBLIC "-//W3C//DTD SVG 1.1//EN" "http://www.w3.org/Graphics/SVG/1.1/DTD/svg11.dtd">
<svg version="1.1" id="Layer_1" xmlns="http://www.w3.org/2000/svg" xmlns:xlink="http://www.w3.org/1999/xlink" x="0px" y="0px"
	 viewBox="0 0 261.6 43.1" style="enable-background:new 0 0 261.6 43.1;" xml:space="preserve">
<style type="text/css">
	.st0{clip-path:url(#SVGID_2_);fill:#FFFFFF;}
	.st1{clip-path:url(#SVGID_4_);fill:url(#SVGID_5_);}
</style>
<g>
	<defs>
		<rect id="SVGID_1_" width="261.6" height="43.1"/>
	</defs>
	<clipPath id="SVGID_2_">
		<use xlink:href="#SVGID_1_"  style="overflow:visible;"/>
	</clipPath>
	<path class="st0" d="M0,25.6V27c0,5.2,1.6,6.4,6.8,6.4h26.5V16.3c0-4.4-1.8-6.5-7.6-6.5H14.7l-4,4.5h13.4c4.5,0,4.3,0.9,4.3,3.5
		v1.4H6.7C1.5,19.2,0,20.4,0,25.6 M8.9,24.3h19.6v4.2H8.7c-2.9,0-4,0.3-4-2.1C4.8,24.1,6,24.3,8.9,24.3 M36.8,16.2v17.2h4.5v-14
		c0-3.9-0.1-5.1,4.9-5.1h19V9.8h-22C38.2,9.8,36.8,11.2,36.8,16.2 M71.8,14.3v12.7c0,5.5,1.2,6.4,6.7,6.4h17.2v-4.5H81.3
		c-4-0.1-4.5-0.4-4.4-4.3l0.1-10.2h18.8V9.5H76.6V0.1h-4.8v9.4h-4.5v4.8H71.8z M113.7,9.8v17.6c0,5,0.8,6.1,5.8,6.1l27.5,0V9.8h-4.5
		v18.8h-21.8c-1.6,0-2.4-0.2-2.4-2.2V9.8H113.7z M169.2,38.5l-4,4.5h11c5.4,0,6.9-0.9,6.9-6.3v-27h-26c-5.7,0-7.3,1.1-7.3,6.8v17.1
		h28.4v2.4c0,2.4-0.4,2.5-2.9,2.5H169.2z M157.4,14.6h20.9v13.9h-23.6V17.3C154.7,15,154.8,14.6,157.4,14.6 M185.9,33.4h4.2V9.8
		h-4.2V33.4z M193.1,16.5v10.6c0,5.1,1.6,6.3,6.7,6.3c7.9,0,12.1,0,20,0c5.2,0,6.6-1.3,6.6-6.6V16.4c0-5.3-1.5-6.5-6.8-6.5
		c-7.9,0-12,0-19.9-0.1C194.4,9.8,193.1,11.2,193.1,16.5 M200.9,14.5l18.2,0c2.2,0,2.4,0.1,2.5,2.5c0.1,3,0,6,0,9.1
		c0,2,0,2.5-2.2,2.5l-18.2-0.1c-2.9,0-3.1,0.1-3.1-2.7V17C198,14.6,198.1,14.5,200.9,14.5 M261.6,23.6c0-2.6-0.6-4.3-5.7-4.3
		l-19.8,0c-2.2,0-2.3-1.4-2.3-3.3l0.1-1.7h27.8V9.8H229v6.4c0,5,1.3,7.6,6.3,7.6l19.3,0c3.7,0,0.7,4.4-8.5,9.6l6.8,0
		C255.9,31.3,261.6,27.8,261.6,23.6"/>
</g>
<g>
	<defs>
		<path id="SVGID_3_" d="M98,33.5h4.5V9.7H98V33.5z M105.7,33.5h4.7V0h-4.7V33.5z"/>
	</defs>
	<clipPath id="SVGID_4_">
		<use xlink:href="#SVGID_3_"  style="overflow:visible;"/>
	</clipPath>
	
		<linearGradient id="SVGID_5_" gradientUnits="userSpaceOnUse" x1="-2.087842e-05" y1="43.082" x2="1" y2="43.082" gradientTransform="matrix(0 -33.5273 -33.5273 0 1548.6133 33.5273)">
		<stop  offset="0" style="stop-color:#ED6D05"/>
		<stop  offset="1" style="stop-color:#E6007E"/>
	</linearGradient>
	<rect x="98" class="st1" width="12.4" height="33.5"/>
</g>
</svg>
