<?xml version="1.0" encoding="utf-8"?>
<!-- Generator: Adobe Illustrator 18.0.0, SVG Export Plug-In . SVG Version: 6.00 Build 0)  -->
<!DOCTYPE svg PUBLIC "-//W3C//DTD SVG 1.1//EN" "http://www.w3.org/Graphics/SVG/1.1/DTD/svg11.dtd">
<svg version="1.1" id="Capa_1" xmlns="http://www.w3.org/2000/svg" xmlns:xlink="http://www.w3.org/1999/xlink" x="0px" y="0px"
	 viewBox="0 0 600 399" style="enable-background:new 0 0 600 399;" xml:space="preserve">
<style type="text/css">
	.st0{fill:#FFFFFF;}
</style>
<path class="st0" d="M300,0C189.8,0,100.5,89.3,100.5,199.5S189.8,399,300,399s199.5-89.3,199.5-199.5S410.2,0,300,0z M159.9,244.8
	c-0.1,0.6-0.6,1.1-1.2,1.1s-1.1-0.5-1.2-1.1l-2.1-15.8l2.1-16c0.1-0.7,0.6-1.1,1.2-1.1c0.6,0,1.1,0.5,1.2,1.1l2.5,16.1L159.9,244.8z
	 M170.7,254.4c-0.1,0.7-0.6,1.2-1.2,1.2c-0.6,0-1.1-0.5-1.2-1.2l-2.8-25.4l2.8-26c0.1-0.7,0.6-1.2,1.2-1.2c0.6,0,1.1,0.5,1.2,1.2
	l3.2,26L170.7,254.4z M182.3,258.7c-0.1,0.8-0.7,1.4-1.4,1.4c-0.8,0-1.4-0.6-1.5-1.4l-2.7-29.7l2.7-30.8c0.1-0.8,0.7-1.4,1.5-1.4
	c0.7,0,1.4,0.6,1.4,1.4l3.1,30.8L182.3,258.7z M194,259.6c-0.1,0.9-0.8,1.7-1.7,1.7c-0.9,0-1.6-0.7-1.7-1.7L188,229l2.5-31.6
	c0.1-1,0.8-1.7,1.7-1.7c0.9,0,1.6,0.7,1.7,1.7l2.9,31.6L194,259.6z M205.7,259.9c-0.1,1.1-0.9,1.9-1.9,1.9c-1,0-1.9-0.8-1.9-1.9
	l-2.4-30.9l2.4-29.4c0.1-1.1,0.9-1.9,1.9-1.9c1,0,1.9,0.8,1.9,1.9l2.7,29.4L205.7,259.9z M217.6,259.9L217.6,259.9
	c-0.1,1.2-1,2.2-2.2,2.2c-1.2,0-2.1-1-2.2-2.2L211,229l2.2-47.8c0.1-1.2,1-2.2,2.2-2.2s2.1,1,2.2,2.2l2.5,47.8L217.6,259.9z
	 M229.4,259.9L229.4,259.9c-0.1,1.3-1.1,2.4-2.5,2.4c-1.3,0-2.4-1.1-2.4-2.4l-2.1-30.7l2.1-58.7c0.1-1.3,1.1-2.4,2.4-2.4
	c1.3,0,2.4,1.1,2.5,2.4l2.4,58.7L229.4,259.9z M241.6,259.4L241.6,259.4c-0.1,1.5-1.2,2.6-2.7,2.6c-1.4,0-2.6-1.2-2.7-2.6l-2-30.3
	c0,0,2-63.6,2-63.6c0.1-1.5,1.2-2.7,2.7-2.7c1.4,0,2.6,1.2,2.7,2.7l2.2,63.6L241.6,259.4z M253.8,259.2c-0.1,1.6-1.3,2.9-2.9,2.9
	c-1.6,0-2.9-1.3-2.9-2.9l-1.8-30.2l1.8-65.7c0.1-1.6,1.3-2.9,2.9-2.9c1.6,0,2.9,1.3,2.9,2.9l2,65.7L253.8,259.2z M266.1,258.9
	L266.1,258.9c-0.1,1.7-1.4,3.1-3.2,3.1c-1.7,0-3.1-1.4-3.2-3.1L258,229l1.7-64c0-1.8,1.5-3.2,3.2-3.2c1.7,0,3.1,1.4,3.2,3.2l1.9,64
	L266.1,258.9z M278.4,258.7L278.4,258.7c0,1.9-1.5,3.4-3.4,3.4c-1.9,0-3.4-1.5-3.4-3.4L270,229l1.5-61.7c0.1-1.9,1.6-3.4,3.4-3.4
	c1.9,0,3.4,1.5,3.4,3.4l1.7,61.7L278.4,258.7z M291,255.6l-0.2,2.9c0,1-0.4,1.9-1.1,2.6c-0.7,0.7-1.6,1.1-2.6,1.1
	c-1.1,0-2.1-0.5-2.8-1.3c-0.5-0.6-0.8-1.4-0.9-2.2c0,0,0-0.1,0-0.1c0,0-1.4-29.5-1.4-29.5l1.4-72.7l0-0.7c0-1.3,0.7-2.4,1.7-3.1
	c0.6-0.4,1.2-0.6,2-0.6c0.7,0,1.4,0.2,2,0.6c1,0.7,1.6,1.8,1.6,3l1.5,73.4L291,255.6z M303.2,258.1L303.2,258.1
	c0,2.1-1.8,3.9-3.9,3.9c-2.1,0-3.9-1.7-3.9-3.9l-0.8-14.3l-0.8-14.7l1.6-79.7V149c0-1.2,0.6-2.3,1.5-3c0.7-0.6,1.5-0.9,2.5-0.9
	c0.7,0,1.4,0.2,2,0.5c1.1,0.7,1.9,1.9,1.9,3.3l1.7,80.1L303.2,258.1z M409,262.1c0,0-98.4,0-98.6,0c-2.1-0.2-3.8-1.9-3.8-4.1V145.2
	c0-2.1,0.8-3.1,3.4-4.2c6.9-2.7,14.7-4.3,22.8-4.3c32.8,0,59.6,25.1,62.5,57.2c4.2-1.8,8.9-2.8,13.7-2.8c19.6,0,35.5,15.9,35.5,35.6
	C444.5,246.3,428.6,262.1,409,262.1z"/>
</svg>
